HIERARCHY
ROOT joint_0
{
	OFFSET 0.000000 0.000000 0.000000
	CHANNELS 6 Xposition Yposition Zposition Zrotation Yrotation Xrotation 
	JOINT joint_1
	{
		OFFSET 6.579712 -2.778931 100.531982
		CHANNELS 3 Zrotation Yrotation Xrotation
		JOINT joint_2
		{
			OFFSET -3.313232 -1.302856 91.974976
			CHANNELS 3 Zrotation Yrotation Xrotation
			JOINT joint_3
			{
				OFFSET -3.421509 -1.641846 91.864014
				CHANNELS 3 Zrotation Yrotation Xrotation
				JOINT joint_4
				{
					OFFSET 7.697388 -4.642578 123.278931
					CHANNELS 3 Zrotation Yrotation Xrotation
					JOINT joint_5
					{
						OFFSET 24.842529 -5.941528 79.695068
						CHANNELS 3 Zrotation Yrotation Xrotation
						End Site
						{
							OFFSET 0.000000 0.000000 0.000000
						}
					}
				}
				JOINT joint_6
				{
					OFFSET -0.159668 -29.112976 68.364014
					CHANNELS 3 Zrotation Yrotation Xrotation
					JOINT joint_7
					{
						OFFSET -18.356079 -115.987061 -20.069092
						CHANNELS 3 Zrotation Yrotation Xrotation
						JOINT joint_8
						{
							OFFSET 31.719482 -11.733276 -267.170898
							CHANNELS 3 Zrotation Yrotation Xrotation
							JOINT joint_9
							{
								OFFSET 29.329956 -5.879517 -234.654053
								CHANNELS 3 Zrotation Yrotation Xrotation
								End Site
								{
									OFFSET 0.000000 0.000000 0.000000
								}
							}
						}
					}
				}
				JOINT joint_10
				{
					OFFSET 8.802979 23.897949 69.798950
					CHANNELS 3 Zrotation Yrotation Xrotation
					JOINT joint_11
					{
						OFFSET 21.159058 115.524292 -19.981934
						CHANNELS 3 Zrotation Yrotation Xrotation
						JOINT joint_12
						{
							OFFSET 18.809204 5.403442 -268.593018
							CHANNELS 3 Zrotation Yrotation Xrotation
							JOINT joint_13
							{
								OFFSET 20.807861 0.421265 -235.639038
								CHANNELS 3 Zrotation Yrotation Xrotation
								End Site
								{
									OFFSET 0.000000 0.000000 0.000000
								}
							}
						}
					}
				}
			}
		}
	}
	JOINT joint_14
	{
		OFFSET -9.713379 -79.513916 -99.348022
		CHANNELS 3 Zrotation Yrotation Xrotation
		JOINT joint_15
		{
			OFFSET -40.607788 -6.518372 -502.938019
			CHANNELS 3 Zrotation Yrotation Xrotation
			JOINT joint_16
			{
				OFFSET -19.807617 -7.437378 -399.590012
				CHANNELS 3 Zrotation Yrotation Xrotation
				JOINT joint_17
				{
					OFFSET 171.701660 -44.751282 -77.782000
					CHANNELS 3 Zrotation Yrotation Xrotation
					End Site
					{
						OFFSET 0.000000 0.000000 0.000000
					}
				}
			}
		}
	}
	JOINT joint_18
	{
		OFFSET 17.854858 79.618652 -98.128052
		CHANNELS 3 Zrotation Yrotation Xrotation
		JOINT joint_19
		{
			OFFSET -24.848877 16.861816 -503.722992
			CHANNELS 3 Zrotation Yrotation Xrotation
			JOINT joint_20
			{
				OFFSET -30.162476 14.470093 -398.750008
				CHANNELS 3 Zrotation Yrotation Xrotation
				JOINT joint_21
				{
					OFFSET 176.096680 -10.987549 -80.021000
					CHANNELS 3 Zrotation Yrotation Xrotation
					End Site
					{
						OFFSET 0.000000 0.000000 0.000000
					}
				}
			}
		}
	}
}
MOTION
Frames: 13
Frame Time: 0.016667
-1122.950317 944.498169 1099.161987 0.122545 -0.968207 -0.233280 -0.062100 -0.950840 -0.266819 -0.035171 0.144521 0.043642 -0.044617 -0.195066 -0.047463 0.517852 2.778127 -0.996480 0.000000 0.000000 0.000000 -0.997648 2.018760 -1.130868 -0.124524 1.695592 -0.045640 -0.125796 -2.202866 -1.470348 0.000000 0.000000 0.000000 0.956458 0.868967 1.541487 -0.001811 1.200043 -1.173883 0.057462 -2.453996 0.726174 0.000000 0.000000 0.000000 1.747376 1.267887 0.259205 1.739607 1.137379 0.382641 1.864286 -3.956516 -0.186644 0.000000 0.000000 0.000000 -2.014576 1.629098 0.088453 -2.054708 0.037950 -0.208626 -2.016952 -0.442004 -0.943804 0.000000 0.000000 0.000000 
-1122.943604 944.540039 1099.157959 0.131004 -0.970201 -0.234516 -0.061723 -0.952768 -0.266937 -0.034717 0.145075 0.044442 -0.044199 -0.195025 -0.047362 0.516233 2.778426 -0.991294 0.000000 0.000000 0.000000 -1.000553 2.019302 -1.131832 -0.123926 1.694654 -0.041068 -0.126189 -2.198820 -1.472518 0.000000 0.000000 0.000000 0.956892 0.868208 1.548387 -0.002176 1.201467 -1.179711 0.057801 -2.451753 0.730202 0.000000 0.000000 0.000000 1.745025 1.268836 0.258756 1.737186 1.142798 0.382354 1.862092 -3.959022 -0.188288 0.000000 0.000000 0.000000 -2.016507 1.629708 0.086993 -2.056648 0.040728 -0.208411 -2.019001 -0.444968 -0.944917 0.000000 0.000000 0.000000 
-1122.935791 944.582092 1099.155029 0.138744 -0.971916 -0.235737 -0.061379 -0.954632 -0.265881 -0.034424 0.144939 0.043204 -0.043858 -0.195524 -0.047157 0.513955 2.778334 -0.984075 0.000000 0.000000 0.000000 -1.002074 2.020114 -1.131692 -0.123463 1.694532 -0.037191 -0.126539 -2.195711 -1.474534 0.000000 0.000000 0.000000 0.957612 0.869131 1.554352 -0.002346 1.203881 -1.182772 0.057939 -2.450624 0.731958 0.000000 0.000000 0.000000 1.742931 1.269678 0.258087 1.734985 1.147623 0.382367 1.860089 -3.960622 -0.189611 0.000000 0.000000 0.000000 -2.017979 1.630368 0.085717 -2.058115 0.042927 -0.208738 -2.020586 -0.447040 -0.945764 0.000000 0.000000 0.000000 
-1122.925049 944.624390 1099.150024 0.144986 -0.974737 -0.237050 -0.061408 -0.956008 -0.265686 -0.034444 0.144596 0.043082 -0.043830 -0.194770 -0.046547 0.511765 2.774032 -0.978120 0.000000 0.000000 0.000000 -0.999433 2.021236 -1.134157 -0.122790 1.694628 -0.031003 -0.126868 -2.195391 -1.476951 0.000000 0.000000 0.000000 0.959621 0.871850 1.558952 -0.002301 1.207073 -1.182644 0.057707 -2.452137 0.729572 0.000000 0.000000 0.000000 1.741136 1.272468 0.257042 1.733030 1.150869 0.383274 1.858326 -3.961804 -0.190717 0.000000 0.000000 0.000000 -2.019116 1.632909 0.084914 -2.059278 0.044449 -0.209793 -2.021938 -0.450139 -0.946569 0.000000 0.000000 0.000000 
-1122.913208 944.665833 1099.145996 0.150828 -0.977155 -0.238000 -0.061495 -0.958904 -0.266141 -0.034446 0.146830 0.042809 -0.043894 -0.196796 -0.046442 0.508822 2.770133 -0.969647 0.000000 0.000000 0.000000 -0.995476 2.023183 -1.135700 -0.122217 1.695964 -0.024984 -0.127194 -2.196589 -1.479658 0.000000 0.000000 0.000000 0.961251 0.876592 1.562881 -0.002032 1.211755 -1.179704 0.057268 -2.455698 0.724874 0.000000 0.000000 0.000000 1.739619 1.275066 0.255505 1.731308 1.153538 0.384301 1.856764 -3.962277 -0.191546 0.000000 0.000000 0.000000 -2.019951 1.635299 0.084122 -2.060105 0.045473 -0.211740 -2.022988 -0.452341 -0.947180 0.000000 0.000000 0.000000 
-1122.902222 944.705139 1099.141968 0.155322 -0.978819 -0.238936 -0.061967 -0.961464 -0.267403 -0.034810 0.147967 0.042927 -0.044307 -0.198575 -0.046236 0.506275 2.767348 -0.962159 0.000000 0.000000 0.000000 -0.991404 2.024006 -1.136313 -0.121927 1.696839 -0.021797 -0.127452 -2.196604 -1.481599 0.000000 0.000000 0.000000 0.964413 0.881030 1.566941 -0.001869 1.216182 -1.178430 0.057063 -2.457449 0.722753 0.000000 0.000000 0.000000 1.738395 1.276865 0.253905 1.729856 1.155738 0.385470 1.855450 -3.962327 -0.192154 0.000000 0.000000 0.000000 -2.020689 1.636912 0.083236 -2.060844 0.046431 -0.213089 -2.023895 -0.454180 -0.947703 0.000000 0.000000 0.000000 
-1122.890137 944.744568 1099.139038 0.158535 -0.977953 -0.239679 -0.062015 -0.966853 -0.268682 -0.034713 0.148525 0.043236 -0.044263 -0.198617 -0.047081 0.504012 2.764883 -0.955499 0.000000 0.000000 0.000000 -0.991387 2.023118 -1.135441 -0.121953 1.696174 -0.022299 -0.127740 -2.194383 -1.483383 0.000000 0.000000 0.000000 0.965731 0.884579 1.571696 -0.001864 1.220652 -1.179972 0.057179 -2.457411 0.724180 0.000000 0.000000 0.000000 1.737938 1.276376 0.252086 1.729196 1.156599 0.385931 1.854798 -3.960756 -0.192038 0.000000 0.000000 0.000000 -2.020908 1.636131 0.081826 -2.061059 0.046902 -0.213686 -2.024200 -0.455312 -0.947910 0.000000 0.000000 0.000000 
-1122.879883 944.781799 1099.135986 0.160721 -0.976708 -0.240597 -0.062030 -0.971051 -0.270405 -0.034594 0.148135 0.043626 -0.044165 -0.198952 -0.047271 0.502209 2.762793 -0.950223 0.000000 0.000000 0.000000 -0.992695 2.021236 -1.134016 -0.122240 1.694861 -0.025593 -0.127991 -2.190511 -1.484555 0.000000 0.000000 0.000000 0.967430 0.887753 1.576032 -0.001949 1.224835 -1.182849 0.057439 -2.456346 0.727210 0.000000 0.000000 0.000000 1.737724 1.275595 0.250586 1.728823 1.156633 0.386253 1.854371 -3.958173 -0.191557 0.000000 0.000000 0.000000 -2.020874 1.634967 0.080529 -2.061022 0.047282 -0.213910 -2.024223 -0.456237 -0.947976 0.000000 0.000000 0.000000 
-1122.875488 944.816467 1099.135010 0.162696 -0.975505 -0.241198 -0.062533 -0.974571 -0.272162 -0.034981 0.148446 0.043492 -0.044566 -0.199599 -0.047325 0.500755 2.762976 -0.945516 0.000000 0.000000 0.000000 -0.991758 2.019149 -1.132291 -0.122518 1.693723 -0.028554 -0.128248 -2.187832 -1.486013 0.000000 0.000000 0.000000 0.969816 0.890354 1.579647 -0.002005 1.228082 -1.185087 0.057672 -2.455759 0.729913 0.000000 0.000000 0.000000 1.737626 1.274148 0.248629 1.728466 1.157391 0.387130 1.854007 -3.955767 -0.191093 0.000000 0.000000 0.000000 -2.020858 1.632964 0.079078 -2.060948 0.048734 -0.214101 -2.024231 -0.456664 -0.948005 0.000000 0.000000 0.000000 
-1122.879639 944.847168 1099.134033 0.163492 -0.975325 -0.242056 -0.062070 -0.975300 -0.274116 -0.034384 0.148629 0.044840 -0.044054 -0.199669 -0.048127 0.499427 2.763003 -0.941256 0.000000 0.000000 0.000000 -0.992241 2.016903 -1.131866 -0.122579 1.691694 -0.029964 -0.128335 -2.186061 -1.486295 0.000000 0.000000 0.000000 0.969691 0.891216 1.583534 -0.002106 1.230096 -1.187485 0.057681 -2.457359 0.730137 0.000000 0.000000 0.000000 1.737618 1.272811 0.246853 1.728128 1.158987 0.388938 1.853743 -3.953896 -0.190725 0.000000 0.000000 0.000000 -2.020666 1.631238 0.078270 -2.060622 0.051356 -0.214596 -2.024093 -0.458224 -0.948038 0.000000 0.000000 0.000000 
-1122.889771 944.877319 1099.135010 0.163464 -0.975754 -0.243129 -0.062019 -0.973993 -0.273778 -0.034419 0.147969 0.043547 -0.043994 -0.198621 -0.047690 0.499051 2.764204 -0.939762 0.000000 0.000000 0.000000 -0.990138 2.013991 -1.132071 -0.122586 1.689281 -0.031014 -0.128434 -2.184679 -1.486761 0.000000 0.000000 0.000000 0.971777 0.890997 1.586202 -0.002229 1.230353 -1.189515 0.057630 -2.459093 0.729687 0.000000 0.000000 0.000000 1.737752 1.271455 0.245083 1.727876 1.160916 0.391391 1.853592 -3.951717 -0.190226 0.000000 0.000000 0.000000 -2.020146 1.629567 0.077574 -2.059948 0.054705 -0.214931 -2.023632 -0.459754 -0.947923 0.000000 0.000000 0.000000 
-1122.901611 944.905273 1099.135010 0.163025 -0.976457 -0.244154 -0.061876 -0.972885 -0.274749 -0.034245 0.148597 0.043614 -0.043825 -0.198900 -0.047328 0.498804 2.766384 -0.938446 0.000000 0.000000 0.000000 -0.989289 2.012222 -1.132428 -0.122490 1.687564 -0.030875 -0.128510 -2.184047 -1.487229 0.000000 0.000000 0.000000 0.972518 0.891044 1.588792 -0.002296 1.231011 -1.191030 0.057619 -2.460858 0.729654 0.000000 0.000000 0.000000 1.737990 1.270180 0.243706 1.727814 1.163219 0.393131 1.853621 -3.950269 -0.189835 0.000000 0.000000 0.000000 -2.019559 1.628038 0.076618 -2.059255 0.058273 -0.214519 -2.023114 -0.461607 -0.947802 0.000000 0.000000 0.000000 
-1122.914673 944.934082 1099.135010 0.160937 -0.978181 -0.245805 -0.061810 -0.970206 -0.274913 -0.034192 0.147752 0.044547 -0.043820 -0.198708 -0.048185 0.498913 2.768963 -0.938164 0.000000 0.000000 0.000000 -0.988835 2.011004 -1.132612 -0.122257 1.686158 -0.029642 -0.128608 -2.182500 -1.487719 0.000000 0.000000 0.000000 0.975309 0.891036 1.591012 -0.002325 1.231044 -1.191703 0.057754 -2.460382 0.731198 0.000000 0.000000 0.000000 1.738861 1.269381 0.243153 1.728485 1.166386 0.394384 1.854367 -3.949034 -0.189175 0.000000 0.000000 0.000000 -2.018294 1.627908 0.075350 -2.058044 0.061577 -0.212357 -2.021946 -0.463175 -0.947368 0.000000 0.000000 0.000000 
